<?xml version="1.0" standalone="no"?>
<!DOCTYPE svg PUBLIC "-//W3C//DTD SVG 20010904//EN"
 "http://www.w3.org/TR/2001/REC-SVG-20010904/DTD/svg10.dtd">
<svg version="1.0" xmlns="http://www.w3.org/2000/svg"
 width="512.000000pt" height="512.000000pt" viewBox="0 0 512.000000 512.000000"
 preserveAspectRatio="xMidYMid meet">
<metadata>
Created by potrace 1.14, written by Peter Selinger 2001-2017
</metadata>
<g transform="translate(0.000000,512.000000) scale(0.100000,-0.100000)"
fill="#000000" stroke="none">
<path d="M2379 5116 c-2 -2 -35 -6 -74 -9 -323 -28 -693 -144 -988 -309 -733
-410 -1218 -1147 -1305 -1978 -14 -140 -7 -504 12 -615 3 -16 8 -43 10 -60 38
-259 170 -631 302 -852 182 -304 366 -519 635 -738 331 -270 815 -476 1244
-530 22 -2 60 -7 85 -11 71 -9 387 -12 473 -3 260 25 442 67 702 159 194 69
512 254 698 406 76 62 261 242 333 324 150 171 318 445 412 670 76 183 147
430 168 588 3 26 7 49 9 52 8 13 19 221 19 355 0 137 -9 300 -19 350 -3 11 -6
34 -9 50 -136 905 -806 1708 -1676 2010 -112 39 -324 95 -378 101 -18 2 -36 5
-40 7 -4 3 -36 8 -72 12 -36 4 -74 9 -85 12 -23 5 -451 14 -456 9z"/>
</g>
</svg>
